<mxfile host="65bd71144e">
    <diagram id="LizBg8LZbLG5OLzqIzUI" name="Page-1">
        <mxGraphModel dx="1358" dy="973" grid="1" gridSize="10" guides="1" tooltips="1" connect="1" arrows="1" fold="1" page="1" pageScale="1" pageWidth="850" pageHeight="1100" math="0" shadow="0">
            <root>
                <mxCell id="0"/>
                <mxCell id="1" parent="0"/>
                <mxCell id="19" value="" style="shape=image;verticalLabelPosition=bottom;labelBackgroundColor=default;verticalAlign=top;aspect=fixed;imageAspect=0;image=data:image/png,iVBORw0KGgoAAAANSUhEUgAAA58AAAEGCAYAAADi5yHeAAAgAElEQVR4Ae2dXXLcOq+uz0RWKuPYew9kVWYSDyM5ufz2zYnHkKrk1hlXnyIJgAAIqeUfJW37uUi1W02CwIsHlCC1nf/zz4ePF/6hAQzAAAzAAAzAAAzAAAzAAAzAwJkM/J8zjWMbeGEABmAABmAABmAABmAABmAABhoDNJ88+eXJNwzAAAzAAAzAAAzAAAzAAAyczgDNJ5CdDhl3urjTBQMwAAMwAAMwAAMwAAMwQPNJ80nzCQMwAAMwAAMwAAMwAAMwAAOnM0DzCWSnQ8ZdLu5ywQAMwAAMwAAMwAAMwAAM0HzSfNJ8wgAMwAAMwAAMwAAMwAAMwMDpDNB8AtnpkHGXi7tcMAADMAADMAADMAADMAADNJ80nzSfMAADMAADMAADMAADMAADMHA6AzSfQHY6ZNzl4i4XDMAADMAADMAADMAADMAAzSfNJ80nDMAADMAADMAADMAADMAADJzOAM0nkJ0OGXe5uMsFAzAAAzAAAzAAAzAAAzBA80nzSfMJAzAAAzAAAzAAAzAAAzAAA6czQPMJZKdDxl0u7nLBAAzAAAzAAAzAAAzAAAzQfNJ80nzCAAzAAAzAAAzAAAzAAAzAwOkM0HwC2emQcZeLu1wwAAMwAAMwAAMwAAMwAAM0nzSfNJ8wAAMwAAMwAAMwAAMwAAMwcDoDNJ9Adjpk3OXiLhcMwAAMwAAMwAAMwAAMwADNJ80nzScMwAAMwAAMwAAMwAAMwAAMnM4AzSeQnQ4Zd7m4ywUDMAADMAADMAADMAADMEDzSfNJ8wkDMAADMAADMAADMAADMAADpzNA8wlkp0PGXS7ucsEADMAADMAADMAADMAADNB80nzSfMIADMAADMAADMAADMAADMDA6QzQfALZ6ZBxl4u7XDAAAzAAAzAAAzAAAzAAA89sPu8u3x9+Xx7s3/3l81OauU/fLj/NhrcnP//4dvn3KXaZ864ay3+//Lo83N9JzI3NX5evnyhyNnoYgAEYgAEYgAEYgAEYuAUGntF8SuNpF/sfL5/vW7P4hAt+aT5/fvn0rpqlWwDgbfnw6fL1x7x5AU9ssm+Lb/JJPmEABmAABmAABl43A09uPvtTpof8pHM0pI++6Kf5pOnmKTUMwAAMwAAMwAAMwAAMwMCbZuDJzWd91+HPNZ/jKet8yvWwNMLxKdj8Oua8W3Ddxhzr413nDT9y072Oi836sQa+1jTOlVjdU2jvb/s5jNevOYevM6te155c67ip/fc7r9OGL3f36an4amd+fTv5oP66r2ZHrWuNhv7TVtDANrZ6bq3f78tD0GzEPeyun9lx83v60u13TaaOPX7N4dWYP17+CfOj7TJWtalrfKhj351rsfy+VDmo6ixryXtfL/wMDzAAAzAAAzAAA++HgRdsPrWZiA3WIZjkojhezG4noTcVoQmQte1Yfj8usv2F8XUbV9a3C/g2br2IP2K/vMhfbK22m6ZxrsQbfIr+x/GzcVHNx+e/L7GRjDY0ztCASQOkdv75sOHLVvOZfB5+uEZK2Ah+yZrzWKGRNWbT1qJBb0CLudaYzvhVn/Vr5RJva8qMv5yfYWc0w64+Fk1kvSMxJw2ybmuszk/TvI59mXvEn0KzQ7XPvDd9dxMG5h6CFmgBAzAAAzAAAx8vL9J8jovq8QRnNgSPAEwubueTr/g0KNisLoTbBay/kC/GhGaw+LzD4G3sXBQ3W7PZanGmi/iD9peL/L5mspVti19x7kbD52KI40duRt5+Xb7eyR98sqakzl1lo+k27GhTteHLom09bqwxG8aQN4snz93Q7Mev8LS19j/P3Y/9e859z/X9pR2fzeeGzczFoonLi2tkx0YVY150SbZzrKrrz/Y7sZbn2s88d1mr5yH6w2Zac4Mu6AIDMAADMAADMAADk4EXaT5NULkAnhe3cyEbYw2E+0zmxYZufD4uhHOzp3PlAti+CjiblrjeuMiu/TpqI64Zfa0v4ocP2/bzRf4Yn23l916XKw2f03pvrdH0qy2Nc32tm5DU+L/0k08XQ/ya6XYT1WNtzVtq7vY0iPlcY7e5zaZrDPvx+7vRgLvjnr+umzHqni4n//wc+7mPcTdjrHGMPg7/Jv/mb9dvMPT9LjeMR9iK62znII3zeeNnnm7CAAzAAAzAAAzAAAx8eKEnn3ahbF8HnRfB/rPNn3eaT/sap7uwjxfz0jSVF/Lj4rpqro7byBfVeiHvj68X8UfsjwbBNRauQZnNkI8hj9WGMTe4Om7mITYj03f1Ya43P4v5kjVcHuzzoP2WL82n6Y/lNTVTwx83Tm9oiDbDz50mSsb3p+XBL/0qrGoTX4fdQmvxb+rXxqh/w4+2Vs+300Z1HezJeO9b24CTf6bnoZhHnvw6PofTX+9brVv9jQNl6+Pln0f4YzFwguEEAwMwAAMwAAMwAAMwkBh42SefZzaf+geF+gW7e3qkAW1dyMvnoxn0jerjbfQL634hrs2HNmqp+Tzoo28Q5kV7svWMr90O+8PXcq3QVOSYNLb5mhss8zlonxscmR/GtGP1OO+zjXFN3Vgzz52adR+1oU1rlhps6GuxCT9+blujN3rd/mAqaCO6+maw25Pj9jXy5F+I7WrMMy/etq5p/gZet3Xz8drcHrvMeaw/Wpe8ctKBARiAARiAARiAARgQBp7cfIaLbQdUP66NojvuL26Xn7cu1vv8ePE7LozXRmmsu9NouQv9IzYWHyWWPne5EJ/NT5t31P4Y554w9TWireX3Sb0fpnNuKqQxcbqua8mcbiNqvBu7PfWbzU/M+YYvTv9hvx4XtRtaLF+XlrjmcdEs/Y5nfrK4atBiyHrPuLwOYW6L5ce3y9f2e57S6IZ66LGuNzeGDXd80WT6o3bNhxBz5XPUU3WMv+MZx2zFHmIVffb9qTUz34VZ3qMTDMAADMAADMAADLxvBp7cfOpX8fRJSwNJL679sUOAuSYpj1eb8WlR+h1QudifX+vMTYtcdGvTKOODn4uNCoxhJ8yrGsaD9uNFvq6XG4v8foyLc3NT4cfUDfmi604OZk5EV9Wxxb7EWvuSG0F7qqlPKUNTrTcXxJY12S0uPTYbP22i2tdHQ266b2pL+bzW7Gse4mvUW3R4mI1kaD5Doyh29Jibs2ri4/N+rjEPf2ZsmgetE81v/C+Icm4ewdbVHES9JjMcRwsYgAEYgAEYgAEYgIHBwNObT9d0zd8ZcxfDZTOxAZ67MJ+25u/k6QW1Jc0aRRnTmqHcPC02/cX8bJpsvcqGxDDWnQ2HzXG/o6nHzNcDPsaGRrXJDUF+P8bFua45ST6pP2G8+lY2fqmBCxq0tfNaOee5wZG4XCM4G6M8VxtEfzyvNxq++LRVc1PleNoKGlhctb7GWuB42o/r+9+rlHhL/sRP1d1pEtc7ErP+leFZJ77xVo39Mcudrr/x1HfV6Yg/KTbTV/TgPV+3gQEYgAEYgAEYgIF3z8Azm8/3dGE5Lq61mYvNQtNhXKBvf/6etCLWlQ80QRMYgAEYgAEYgAEYgIH3zQDN5+E7MDSfbBbve7Mg/+QfBmAABmAABmAABmDgOQzQfNJ8vvvH/88pIOayAcMADMAADMAADMAADMDAMQZoPg83n8cEBTx0ggEYgAEYgAEYgAEYgAEYgIGVAZpPmk+efMIADMAADMAADMAADMAADMDA6QzQfALZ6ZBx12e964MmaAIDMAADMAADMAADMPDeGKD5pPmk+YQBGIABGIABGIABGIABGICB0xmg+QSy0yF7b3d0iJe7mDAAAzAAAzAAAzAAAzCwMkDzSfNJ8wkDMAADMAADMAADMAADMAADpzNA8wlkp0PGXZ/1rg+aoAkMwAAMwAAMwAAMwMB7Y4Dmk+aT5hMGYAAGYAAGYAAGYAAGYAAGTmeA5hPITofsvd3RIV7uYsIADMAADMAADMAADMDAygDNJ80nzScMwAAMwAAMwAAMwAAMwAAMnM4AzSeQnQ4Zd33Wuz5ogiYwAAMwAAMwAAMwAAPvjQGaT5pPmk8YgAEYgAEYgAEYgAEYgAEYOJ0Bmk8gOx2y93ZHh3i5iwkDMAADMAADMAADMAADKwM0nzSfNJ8wAAMwAAMwAAMwAAMwAAMwcDoDNJ9Adjpk3PVZ7/qgCZrAAAzAAAzAAAzAAAy8NwZoPmk+aT5hAAZgAAZgAAZgAAZgAAZg4HQGaD6B7HTI3tsdHeLlLiYMwAAMwAAMwAAMwAAMrAzQfNJ80nzCAAzAAAzAAAzAAAzAAAzAwOkM0HwC2emQcddnveuDJmgCAzAAAzAAAzAAAzDw3hig+aT5pPmEARiAARiAARiAARiAARiAgdMZoPkEstMhe293dIiXu5gwAAMwAAMwAAMwAAMwsDJA80nzSfMJAzAAAzAAAzAAAzAAAzAAA6czQPMJZKdDxl2f9a4PmqAJDMAADMAADMAADMDAe2OA5pPmk+YTBmAABmAABmAABmAABmAABk5ngOYTyE6H7L3d0SFe7mLCAAzAAAzAAAzAAAzAwMoAzSfNJ80nDMAADMAADMAADMAADMAADJzOAM0nkJ0OGXd91rs+aIImMAADMAADMAADMAAD740Bmk+aT5pPGIABGIABGIABGIABGIABGDidAZpPIDsdsvd2R4d4uYsJAzAAAzAAAzAAAzAAAysDNJ80nzSfMAADMAADMAADMAADMAADMHA6AzSfQHY6ZNz1We/6oAmawAAMwAAMwAAMwAAMvDcGaD5pPmk+YQAGYAAGYAAGYAAGYAAGYOB0Bmg+gex0yN7bHR3i5S4mDMAADMAADMAADMAADKwM0HzSfNJ8wgAMwAAMwAAMwAAMwAAMwMDpDNxA83l3+f7w+/Jw5d/PL58eJcbn+8rmr8vXT2sHfut3JepYcnz3l88UzKMYufW8v17/pKbv78gHNQkDMAADMAADMAADMGAM3EDzmZvBceH62GZzXqh/unz98fvy9PnZn7//nubz7+dg8oUv17Wg+byuERyhEQzAAAzAAAzAwPtj4O01n3f3l4cf3y7/vtk7DPNJ8fe79wcsm9RryDnNJ5y+Bk7xEU5hAAZgAAZg4E8z8Oqaz3+//Epf0Y1fpW1PCdtTzzwuPwnde5poTV1rZB+i/X8+yIW1NbjjSetD/ophn/v7YrakGV7XfezXZfebz8W++SnFJX7VX3POsX68LPYeor/2+f1d0jzZ+vTt8rN/tTodX24S7McXCiTHknPwQXLjvtKd8/FPMUa1iWOv2Rp+//xy15+8q41wI0Q1cH4OTr0mni+1Gb9yPjQfczLntm6POeZqanfdbhs7bGcb1dyozc8v38ZX6e+/BS1yDc413FfInTbt8x7rj2+Xz6HuvV6Na9HsYa23zc80F46N6F8Vp2ri1n/GHmG1Iz5E3rZOhlHrlu/r86Y+kY/f7kadxrvDr9Vqtuf00DGFvmPtxFMxrsrDtt9Tp6znQ9qrOv95z9jcH5OfLS6bOz+ra2T69I/EN3Kkus35xvhmHnWOq5GS2Twu5yR/LvZy/K6WTPNQk8PO7j6nDFyxpXtXyLfysPjlNDX77dhGXKLRtF2MC3FJXdkxrbOmo8y1z9QX1aLtz3n+GJOZvFqreT9R5vzaqlHJwdRkjT1y1+uha1n7PnhPHF1d29dJYyzN13ic742z6atoe3Udr73mQ/dnjbOOS7mLudB8zzqLn881pm5bx67ZWj+3WnN7Vrm3qC6eBztXT98frWfmruTiz+tZaqA1nzSY+3O9t+3Zynrlui3PJWEfeow2W9y8r+PPbj7/67//5/Kf//xvbwjba3t/vTj3RK43lWazgmdAkjabvrHpsbbWevLo8/IJTjZG23SKgjQobW4NnRaC2XIX0vOprMw1W3u66GcSy3KxMo/PjUw3I6fFxuZvc5wvFms6UfhC3B4z1rb4ddPMJ6NQwC5XS3wa/3gdLPgL75xjee/i0ZzEjWbkIBwTX8135aewtYwJJ9Iqv+3YPCGPOOL76cuIYb73J/Y5R+utqg/9LL4es1vbW+fmWvJMmD6Lpnpjw8ex5sxsOe2zZlbfjdOdE9KeL8qGjZGcB+1tD3I+P3GPGHGtdTnXj7yP/K36qN/Zz6v5XvYjsX2NX61jp/PIh6/Fj5fRdDmdTDsXc8GExjN1WHmzfDsfMoPWDCzceD+L+nT74/Rh5MJYvHaB6Pe0HGPWT9bbz5+yUGmhWkf215xUcyXnpmMxRvyd/smca5xU9bPYynuA5MPpGzlWHbZeC/97Lorjiy+ytmrR8uLYWeq12Q21n+ZrfflYJNeZqxBjYTOMF7/DscVujLezoHF5Nu3n1ffuU/Blcra7dvJl2auzTdPR1eUTYlQNx3q6xxRxie12vTPjEKZdvtd9aIu5fHzb1qyhwq9if4yxtHVkXjrPDTbdXpvZPqJnlRddz9gp/D5Zz1WDpoNobH5pb+BzKr66nO7ZmrmZN7wfd51+VJvMy/t9/+zmUxtPbV7ae90InvYaN85pY+N4KKxZnHNjkeSm4lovVvRk4gBOc/Rk8/OHf2JQQHd0Q7VxbuOwE8IWlFJ4YfOcxRfvNM6xdlHeY2qNYVxzFKaLyzYV3cinPn7uvCBzuunm0DZJLX6zF9ed+dV4p89LDk2bDRZ6bMPfeqPRix0Xk2ywYa3AlGq7+h0vSMRvtyH22JKtfqz5KeOGn2q7saQ/Nz1ynPL+R3v678cN7bZi3tJ4bri13dpe8qmKT3OtuZe8hZqr5lk9TJaixspIrjnx6f7+8tNf7MkF4M9+PNlMvtmJ3fKX4pQYYr60JlwuZM/Y3SPK2CWmxS+NWTn07I7Pao3mvJUjN8/WG/Eql8ZM8jXk0Oqx8L3Pi75mnnZtXclDmJt8NN8lF+OPzO3HZ7Ugc77f/7IaHfba/F+XftwxlmOytVWbwrcxp/EoPlkOfM6qn8d481XWCFrounrhaLavz92KJdoXny0/4meK85itNndqoN9uCHuxxVPpkY/VMR7zJe4pLeagc+di7iEtz1GXOD8+8VY/izrJ8XlmixqKaya7lhOvw1hzX9Pku/rkfVnirdde/Etc6DVU/MOP3t+sa72OchNytDRwOS7V/1f/FpZqMvhwe7jE32Nxtb7UturkXndZM1vZrxFjnlu//3Xp5xbNddZXfOlzpfaXnPQxyYeU6xFrGqN7iq6t73/8aT1lzzA/8nthRrRRRrKeI8bIXl23xXne5XxXq6TNEYbey5hnN5/adPrX54mXYFiSPMAaG4M+2dOTghSLFbluXO012i0LMp9gQkEO2w3kODcXqKyZbYU41E/1f934tjWUQgvN57SnhabzR8G1deRCUPzy+fI/64as8/urFPEcN/21PNhGEOO3dRcbGvt4netW8fk8btyBDfpuncCqTWSsN9fP9kVbu4hzvgQ+Il9TP4kn6NOODQ1HfkTPZm8ZNy+C7IQS1p3+1Jvr/Dz7pKxs2a3txTj3xsRYVHvP4eRoy7dYazOWwZ02N+rT+MrozKXofDe+8j2PTzt6h9vYNv3VZvzK84jX+R1yMVi5tkfUmm03l6rNlhb1BZ2LMe19tb06Xt03Ry6lFkyjucYSU9dF8zPGLWN8zfbxbk+wNSq/xrGFr25v7oUjp662wp6pvqeYNJ+dGed/O25f/57Hd2Nq/pQXh95Hx5LXo/y50iL57+ZF36q5Ozrm/dr2v8pO0/IptiQHPveWd83PY163fHM2NuNyOvYxOS/u865xXit+HrWf628d15r0tdzrfU8Pr1t4GuZ862Mmr7aO42S98Sb+9rlZB/9ZVa8z1rbWiNfZqGxKHC+3P2u8MSdD2/vL51CTMsb4dv5Xvgbd3Fg5fmyPTn7J3MxGfD9y+v0uzX2sj6L1cr4r7aS1tNlUJvucc/WMGqjeQwvb/yWmlZ/o/54tvRaK9SHzW231f47jhYO4Vs2a+s9r0/nZzeefe/KpG1kCIWwkO01HugArN4kMsStID26cm6BTKLMtvXNoIMsG6daI4G8BKoUXLqSqYzJf/LAm0N6rjvF1FmEuPD9uFmHXIpz4NtbNJ33TQe2qzZ1YdrSN2onvR04o1YVGYGpPh+Z79PvaBjj9nHEuJwKN0zPrfdpgxjM616k4Gmv3XO/YHfY0P/FVOanXHJrpGPPF+T3mqXbeR+eb1oye7EwX3Qv0ImPO6XZ1fFuvMeBjbDbkveo+/JQ861yv/bKu83uJafhU7hGBefV9xl5rqZ8/gmnn79B+6mO5UG2tRsaYfX7HGDvpu3Wy7/292R4x5DGPyYPmar5G/Wwf6hrLZy4342IgMjxtua+s2pyht+rR7DdOcgzj/WrX2M/sqWZ9HbeuHt99rfJ4NCcyLjDY/PY6pjFSC5HlMUZ1mTzV9WMal7YS27aX6vHHvg7fTHvT8khc4n/Xx9W32Uh7jnGiPvr5yoPXdozL/Ez9xI5y0fywvUjXeNzeNbRffVjW1KZiYaPF4bQ4tG/6OIcOIR8+Pr+ej/XQOimn3pYx7Zl0bISarPKm+UvxOxZWDVvcYivte31s4MX7NXOb2fDvZw3GuWOMy1Hl4xE9t/ISOPRr/wk9U81ZbJJ7ZWbPd+f/0Mrndv7sGb16LjE/Zu4s992nLW38eH5+dvP5x37nUwrIQ9KLOmwk0nza5uMSnObPYnZjBGI7sdqGMWDS43GuL8hrtvQJbR53ZfMIsEvhheZTfAi/hzPWmAXnL8iKTdUKePgy5zmf05imvxVq3nBtrKxrG2COdcYzcjvfq97LRi+2Nz9Xv7JPTcc+1/nQ36cTdGBqI78hJ03r4ffCpxwPFxLOf3/yGFp6X6bN/lnYbF0M4suw5ec7zoK/x+zW9ubc9aSq640xIWa7Cy7+5TyYf9F+rDW1r9xprG5Oz107PvLW81Hlc2Ej59nZNN/0ZOi0tzjGeGUy+h1t17qqbY1pxqr8R5vuc/PBHXM+b7EZ7dXx6tyRyxiH+tVec0zdtvIqvsQxYuuJeej2dZ939eR9CrV+VSPRzo3r/rYYOj8j5zGGNe6+vvC2sqf5GVprY6bMBN9D/uK8uMcczUmdX6+j/9n70o9bnmo7kZNcn+q/HDdb4/jQVC4E02fej+s/174di8vpGPaL6bveLGn5ipq0MW5+UQ/qe+ZHj9ur429zjUWjuLbmonPi7NkaC1t5vsQc5sqYq2s7vdo6vhba+2BTx0o99P3i6Dp1rqO+M65+XH0P+Z1jtvVRP6+/rjmTOSHues3ou9tbur96zolzxxz9rPJPxmvslvtop85LGuMY/1N6Zk1GjjwvW0ytWuzZsj2158ld86peIX+rbV//29pU897vsWc3ny9RsNFGvamM4lihGEC541uQpOPlJpHBkznx97fyiScXqMCUbA0/102i++HvLirsm69SeKH51JN9birnWGsExK9wR7OtJRuyHh9+ud/Z1Iau32Gccdi44I9bVze9ZH/mfI4dG8B8v31RNsbYhqFauZPKvt7zAr/7ny6SVQtdf9iac9T3eFz8vmJLLww0H9HPbEPizL/jKVzG35txJyvVY/P1mN0Yn26SMveLfB3Vaa66qH72+77iR9c68bDkMNXN4Ctrn2vO+zQ++/6lfdVWOA0+jrGq/+Kz5c/b1NhV48m/nrQftUcEf9S2xKT6FLmLrOg8rf2s0fxcmctah3xUN0maD8nX3XyY70M7rR/VOPL0vDyo7q0G9nXRXNX5XLTxtdVjv798bX9pWWKLMejaWXuXy6Rf02JoOPyq9fS58z/XMdQ2nA+dpXru1DGP13UlTym3W/Uzcn7U1uSr2xOtMqfKz/XXKsajvsg4qf9dTe/v+1/zjnzH+bluhu9bvqjW6UJ60UNyYXuUzJNxMydehwNruqYiaOxr4cr+MNb262pMSZdgU8f4a6qnxDjtxPrU2OPvJObcxDlbtubxoFHap/f3It0nkiZiI/uhtsLveOZcFftL9890PqinjfdxZj//lp6qm/qWY6q4a2Pj8azvyGM1Rs8Zul7cs+v8H9OmnjvXeU+fv57mc9lg3YkrND4Cgd4VdxdQc3P2m51LfC/A3Mjmhi7PzQUq9jZshROrjNGG7xh4Ungh5rbmPK531OerK15bU+40h6+rtGMydnfcLM5xkt6yNcfphj99WueMk/mMI57cXZ7szrLLlW7K+SLJ3uuJff4OpWq2rLNs6OKTtyVjZj4rv9d5+aJGTzDWSAZups25jsbhtN04eW3zdMzukc26rZFj8kyYtiGukcsxzsexpVf8CtrWPNVo+O1unIR8FvuDsuO+oqNsqE3VcitfuYa7j8bLukeMGGZdqs+mV7qoGeuv+uhNueyn+uvn5THRx8nE9KFYr9iHF997rmds6ssYp8efl4egn7AV4pNjPi+LnwW7sxlrjKqPc8+IMWw0n35vCOxp7U57ypk/N6le6+vIR4hz4/y2xlrP9TqOn309am27WnLnmT1OjtlSfZUJ1TP6sOoQzwXz870Yo83hn48r16iwnxs942r6PNbP81W7OW7NSRFHtz99HXP0/aqXZ3QylHTwPJb7yup7jyn4cmzt6O/k3VgJNjV+r/WxdbRuci2M9VVztRXPH3otYj4p07Zfz2vLbH+ypr7nV4nF2xJmpq1a7+i71oK7Juu5W+eutfYEPcu85LX+vJ5Zk6G/j2/oP8b568Gt+lM2NG/DluVmydVk2J9LVg6OaqPr8vp6mk9/krWGqYG0gtjAsJOLjM1wtSZobj4CgoBnx+X93NTHuG7bNhcHnfnlGys9cXiI5fNm4+qJIUMq8Vb+F3Fn3/VitW4Cna+uwRtjm9YzVtXTdG4nadWr6xBt6YZfr+tzsR9fKPqwXjrB+I3a8uJ8Et23/BnH3XgXu84xTvpauonJ/3Gpa/qLF/FXtWuxjE3Tr6PstmOqRdowu504Z9pKY7tvWwylscnu3sbvY8j1tvX/fEa9hk960lBNS7s/vl2+3vuaSn7LHmBzc03J+7n+5FjXbZ8NltW2au/X9VRQo+UAACAASURBVD/LOGXQ51nrMO8R1RjlRJ/Slvny+cu+rxyEGglsxj+eFPexA/yab1kb1Ux59joVP2ddTIOxDxzLQ4pb86C2tvbWapzFpXv0tJ3rM9dE5ld5sn3Xs6d7jsUveVWfEh9H8zjGbeek/lzzMmNt42w/Fx1bTUUNjnNyzZZ+Puuy6aF8q18S11Vt2lz1LXJ+LC5Z168jeYn+bflTzF/01Jh8Paef+5p+nNg1ZlQfzd92zdh+uHGeGVw4zX3srSa2fNEak2uQWK81Q7aWsu5s9Jqx+Jw/bszW/uxjbGvE+lStvJ6zsYx51bFRV/PbbCdbfu+wn7OtPEc+T3pH3zUWf6PKaVPOnb5HXbI/BTNLrqu11E6Kx+9xmxr4a7xmW+NLtmy+HzPjsv3V7U+Wo8xWYErXm+eqMa/YMyo7EmPUdfg47DxGGz/v/f58g83nW0pGA3u/uKxwUtG9luN6AWEXW68ljr6Z7OXmsbkrNrHXosWL+zm0eAkmOl/pJPLXa6Ozk09ir33fehl++wXUXr7aiX3v8xdn8bXn5db8fxlOHlXDrd7Sxfaj5r8kU3IRGhuXW8sR/pzFx+f7vWsGdH+s7s/Rs10bbDeD5OKxufjT42k+X/LEtNhqJ+q3vVnRfOom9xcuyhbe1Je//Tq0oPn823l4zPovwy/N52M0f41jX4aTx1zoNKZu5SLzKt83uye/RtZuzefG/lu76fg3NX6enjSffzN3z1+b5vPUk0UrLprPx1xo/LGxPPnsX305R+9xgUrz+fwN+pz8VH6NnD33Iv/qxTlPPk+suyqvL33sZTg5znX7Otvfv+DvXPev+v19X45r99K5f+f27u5v5ibIm2DgmXrSfL7ueqT5PLX5fN1wvIkNjvy+8otdaog6hAEYgAEYgAEYgIG3wgDNJ80JzQkMwAAMwAAMwAAMwAAMwAAMnM4AzSeQnQ7ZW7lTQxzcdYQBGIABGIABGIABGICBpzNA80nzSfMJAzAAAzAAAzAAAzAAAzAAA6czQPMJZKdDxt2hp98dQju0gwEYgAEYgAEYgAEYeCsM0HzSfNJ8wgAMwAAMwAAMwAAMwAAMwMDpDNB8AtnpkL2VOzXEwV1HGIABGIABGIABGIABGHg6AzSfNJ80nzAAAzAAAzAAAzAAAzAAAzBwOgM0n0B2OmTcHXr63SG0QzsYgAEYgAEYgAEYgIG3wgDNJ80nzScMwAAMwAAMwAAMwAAMwAAMnM4AzSeQnQ7ZW7lTQxzcdYQBGIABGIABGIABGICBpzNA80nzSfMJAzAAAzAAAzAAAzAAAzAAA6czQPMJZKdDxt2hp98dQju0gwEYgAEYgAEYgAEYeCsM0HzSfNJ8wgAMwAAMwAAMwAAMwAAMwMDpDNB8AtnpkL2VOzXEwV1HGIABGIABGIABGIABGHg6AzSfNJ80nzAAAzAAAzAAAzAAAzAAAzBwOgM0n0B2OmTcHXr63SG0QzsYgAEYgAEYgAEYgIG3wsBtNJ9395eHh1+Xr58ErP7+9+Xh/s41RneX7w+/Lw/2z43vDeSny9cf/nP/8xz775dfl4eH+8tn33R++nb52ezKep/vf18efny7/OvHfBjr//zyyfm0rvn9rigOjUd917jycf28vw6fh78+lvHzsk62tfi/+lVqUcb58dI1Cf4lDYNWc63sv9cvr69jbYzmJawrWqT4DvmXNVK7ydY/osE2azO+t7IREAc5hQEYgAEYgAEYgAEYOJuBG2w+R0MXmittQrRp+/Dxoo3KHCeNoBvTxBvj9ppP10A+qvmUZtg3LtLcTJ90/d+XeUzmJT//6XOnn5r43KBtx+TX0Jj2G8TKtjZe1gB+kMbTx/lB7Idja7GOhtDFJHlU23H9posb25pZGT+1a2usa683C9YxXc+ucdRkmbvJWvJto9nWvPG68oAmaAIDMAADMAADMAAD75uB22s++8X/lQahX/jnBkPep6buWvOpn/9sT00f0XzqPHtaK83IaLjU/+pp6cfLaDR1jAD4iOYzNmUba6RGryr02PxpISR7ZQOoMew0ZBvz+prStIb1W/y5mS1tpLyXYzb8K9bIzWfMn2qS1qTxdE//VSNeqxrjGFzAAAzAAAzAAAzAwGTg5prPfvEfGsi6qWxJDM2LPhELc3XMbJLinNFofb+La8QxKpZvynaaEd9EbjVGVfPi57nPK1/GMYlpc40YUwV9Zbt68jnnik39ump+Uun83nqSO21pbloTPuzqE1EbU8a2o70ysOFfjzc1uLH5HDnWmxDmx8KaMsGr14if4QEGYAAGYAAGYAAGYGCPgRtqPuV3+VLzqM3Q9YagbrZCo5aaiNl4pLnS9MRmqGg+rcnJv5MpjWFvKP3XYXdg3G0+s/3fF/Ntc40Uk28M5eehzWq7/a6j2dev3Vqs8sR2w1+FLeuux/2rX9+vZ2MONp/jaaXGse3femMjf6VYmk+LVW3qa3paXWhqvvMZT0dhAAZgAAZgAAZgAAZgIDBwQ83naNhmQ6iN2nYTNZoXbQjqcbkJsjm9sdEnosVcaXzmH50ZDchokorxFVibjaHG5l43mjnz19v3zXHZoDW7130sbec/OLQVw4a/2nxl3fW4f53rb/haxiZj9QnmYf/GvNzkRt78DQaXG689P4cNxOeTn2EGBmAABmAABmAABmBgj4Gbaz719xl9kzCebGmTqQlNTchGs5WbIH3vf8fzSKOmT2DVr9k4qT/jNR7faGaqpmqjmYv2dC3frMnTuvzE2DeoGw1TbTv6PMZok67r61+/XY8bbFWMzQ8XZ1i/aiJLGzHvh/3rtlZ/Y/OZn4SmeLXh3dDTYudzGlQYgAEYgAEYgAEYgAEYWBi4vebTvhrrGgVpQvxXb0fT4b/S6huy2TTk5kTnxf9upZ4bm4nYlGkzGv5IjvipDWqbr+vNv9gamydbwzVldszmp8Y7rbO5Rv4vZVIBjHnJ9saTTx/TaCDbk2CXo2S7xTBuGvgxsVHO6y83GSTOqV3La9JPmtZr/vW1iuYxN59688OzpvFGPyZjPl/8jC4wAAMwAAMwAAMwAAMwUDNwk83n0mD0xkYaF/t9vNk0afNVNUPjs9kA6djQrGhDk58ehoYqN59NUGmEzCffDDvBpUGyr/BW6+w2n/o7h+412ziyRohHG+Op4yiSIs5suzVxqQHeKjDVW2P3uo/P/PranP7f+X+2Lg1jaj5bTFf8G02t087lS/0KzeaB/+dzaZSTtlt6cNzVBZotdwPhAz5gAAZgAAZgAAbeMgO30XxyEcpF6IkM9EYxN+tuvd4E73z+ljcAYuMEBwMwAAMwAAMwAAMw8KcYoPl0TcifEp11/myB03z+Wb3hG71hAAZgAAZgAAZgAAYqBmg+aT7f/FNXmk82v2rz4xhcwAAMwAAMwAAMwMCfZYDmk+bzzTefbCp/dlNBb/SGARiAARiAARiAARioGKD5pPmk+YQBGIABGIABGIABGIABGICB0xmg+QSy0yGr7npwjLthMAADMAADMAADMAADMPC+GKD5pPmk+YQBGIABGIABGIABGIABGICB0xmg+QSy0yHjjtb7uqNFvsk3DMAADMAADMAADMBAxQDNJ80nzScMwAAMwAAMwAAMwAAMwAAMnM4AzSeQnQ5ZddeDY9wNgwEYgAEYgAEYgAEYgIH3xQDNJ80nzScMwAAMwAAMwAAMwAAMwAAMnM4AzSeQnQ4Zd7Te1x0t8k2+YQAGYAAGYAAGYAAGKgZoPmk+aT5hAAZgAAZgAAZgAAZgAAZg4HQGaD6B7HTIqrseHONuGAzAAAzAAAzAAAzAAAy8LwZoPmk+aT5hAAZgAAZgAAZgAAZgAAZg4HQGaD6B7HTIuKP1vu5okW/yDQMwAAMwAAMwAAMwUDFA80nzSfMJAzAAAzAAAzAAAzAAAzAAA6czQPMJZKdDVt314Bh3w2AABmAABmAABmAABmDgfTFA80nzSfMJAzAAAzAAAzAAAzAAAzAAA6czQPMJZKdDxh2t93VHi3yTbxiAARiAARiAARiAgYoBmk+aT5pPGIABGIABGIABGIABGIABGDidAZpPIDsdsuquB8e4GwYDMAADMAADMAADMAAD74sBmk+aT5pPGIABGIABGIABGIABGIABGDidAZpPIDsdMu5ova87WuSbfMMADMAADMAADMAADFQM0HzSfNJ8wgAMwAAMwAAMwAAMwAAMwMDpDNxA83l3+f7w+/Jw5d/PL58eJcbn+8rmr8vXT6/zLsS/X36tGv34dvmXInkUF9UdGI69RE1IHd/fkQ9qEgZgAAZgAAZgAAZgoGTgBprPfOE7LmIf22zOBuLT5euP35enz8/+/P33dSOtzfX95TNwl3BPJv5+Dt++LzSfbz/H1BE5hgEYgAEYgAEYeB4Db6/5vLu/PLylJ4ItHn0q7J8queNvqdGmoJ9X0H9PP5rPv6f9a2UGv2EGBmAABmAABt4bA6+u+Vy/fhq/StueErZmLI/LDdre08Tvd1IIvcGL9v/5IBfZ1uCOJ60PvjFsTyKlOTRb8nRyXffAk8vSD1n3IT/lFf+0YW2vwbf5uflmjayPdY4rm1+JJ+vs17LPTKuNDcbWv66F2ZT4cl7/+TB1Ub8tTntCvI6px67joq2h0c8vd/1pu9oINz8+fbv8TDkYMRRad53UZvya+eBmzMka2Lpdky0Nr9ttm9+wnW1Uc6M2P798G1+fv/8WtFjzo2vok/vM58dLj/XHt8vn8FVzr9esr4eH7OvOZ5oLYafpFv2r4lR/3fplPY65M/eiT6g9ic2tH3naqI9DTFdzxSdZL8baxsfPO0fB3xyD5txp8WGNac2JzpOchzWG37v7ouYt7CNqM/py7QS+VTs+D7kGdI7pZ/uVY1hzarFVLKnPOm/6ntcccch4szm0Un9m3U87Gv+q51jTYrC9MHGzFVvQ/uPlH82Jxu1qafVP422v95fPMnfxRY77XGg89hr8W+Pe82vYyHnRGvD7iB5zfqccLOeZ5fMjdZG038rJUv8ad+bJ+dvy4nxaedB4i1hTTsdcHT997sc9FyE3cX3LX4oxsrKuET9v8Wns4kdf0x1TH1zs15nw54xije5zoZNfI8XV482+eTtet2qunYtnTn29rLqMcaF2ihode0bUOdqKn7U44ueFPmWcee/K7+v8jbVWH4yfco9Y6yDosKFvFZvX2Na0+c+IQXNhzEyeVl/3Ppv1t/r3uj57dvP5X//9P5f//Od/+9O59treP0+UIXwFQQVm3Bg9hB5gSaYlfl7ght+ZlI3LYCiKyjZx2zz2gPx9MVt6kWbzGigyNxw7BtDcEIo43cnDLlAs9gz2fD83dn9sbn754nT6EMdo7uzza/GJ7utFa9RiaO9ONFLQup5dTPv1xPYcM3UPx5ZNTTQobM2cTp2mrSqn7dj0e+gS38/5w+Z870+Mc47W2LDlGYia6TjV5prd2t7qU77wsLp4cMwvmuoFmY9j1dlsOe2zZnpzpzE58zFit/m+MS18URtz/hpn069e28egcf1237pY94Xhl8tV3m/sJOdzuOqjfodcLnNlntb9Rq0EG8uYFEPz1+WkadNjCscy//l98uuQjVkD6u/IyZr7ybvXcP5c8Z3zG8c0f2Ouh/7pmDbyqre8V3+rvd6vG9dUf5P+xqJjSPVzrHu7U4+h+/RH10ivncnCvs/xoVoadnfj8jY3Ypv+Twa0Xpc4D/kVdeg2LGfN5/h5X3+rLsz/MWdp9uzzZjfXQdJ9qV/9XGw7W0vcfe7Kimp3vUbjWgsj5T4VdRo++XpcNVF/9DXHkffH8XnBomM91uLQQPnwuQvHcjzpffbrGBOqoXvtduM+MWL05wk33jEwxrm5icFKm+h3rX+eF+foeWxqnsc3TXOeYg40nsxjfi/jkkbVespLnc+1PvT8GHLutFV71zTWcfP1qTHIvHBDSPwOx7wmxc2EIobpm+r+el6f3Xxq46lNTnv/PEFGUpYNsDoptGSEE85M8gJegryD5zb07nPahJaiEhs/f/jNYw9ItxkHPx0gya9r2o2CkWYvnDT1IjnecbTxFuuEvmskMfsT59gAHmnHLh7mPLNja7u4fSGpD/6k4j9f8jzt9DXE/tbGNTSYG6peCARGUn6GLbf5iz/RlmiZ8hCZFF9bjDIu2m78+HUy//L+R/uDU37csLsV88rRMbu1vTQ3adXXkmO7zUk1r+kq+dd8RI0116nO+pxfl+/3v0zXEXPzVY47nrrNhcNkc2OPiflSf10uxJfdfaGMXdZf/NKYtaY9u+OzWqM5b9m79OI3MLhh1/yJ+rQ1w75cxpT0KcaEXBSf9zyKpv4PxI2Yf12+3q3fJlh5d1q4vaTkO/kQxjQ/TA+xWfimF6ha4/re9LoyJ6xp/kb9F5s6Lvkf9NUxG2wvuhXxZnv5/bCRfR1a1XEp166GEp+LX3rR63NxKO7sl9/Lxme677Q1t/wNMad127xrn/d4SgZqTjX+2p/ht7HVc5zjFLuFr9u+eG28X+P4ZDvV+BZbPd51jxmxFf4GfTZ8yfH4Of2zuF7Ii9VCXHsZk9aoc5Bybradbt639rm8j+cJN15tpPUDC8J/6ZOf539WuwvfUYeViyfkwNbKtvN7iTtpVMZlNvP1vtar30eG3Z5Td/5XDe11Tx+/x/i1t/aoKzGMmH5det7tWlG0vb+//Ex+Nt9/9uOufwh+FMy8ws+f3Xxq0+lfLcFPEmQD+GRrwDWfuI0TiACekjn8iXaXDafZ7xC5hAeohu224ce5e0XlbAX/1U/1fy2eLQ1z3FVD0uYO4NW+b5aHDvrESO35E7Bfe9uOKwAp5MHA3PyXueGJ7Bynuu8++Qy5cGs7XWNe3Jhl7tAgxBw2I8lPtQkFW5GpqZtobBtN86UdG3nWzahfWDd7y7h5kd/HNj/CujO2Yctp6fSY/uj61+3W9mKce2NiLFpT4t9GDPmieiuPg9VkqzciLv62hn1l1x33unQ/XG2Y/jFO1W/E62o0xHFsX6g10zrd8DNf1C4xOJ/8Z9XPwne8YBWOQv36vcLtbX3M3npH97SqNpTnazZkbt9HtjXTvFWvVR5yfueYmdtgK+Rffc9xRZZ2md6sb6d/kdNRD5Nj28/CXhb9K/PvbPfY07635XvXZLOWxrpTS/VDX6M+5Q0751fQX47nvIUxm365dfuYHY4260Jj0Necez3eXq8x7ceuP+9qH/TZZ2Voc80Xp02wve5Twa+StzWWkJ9kv302eK7zMT4rWHe12MfYXl6sv8lEHLvL1WEm9Nyne+bQfr1+jGt3jVxMW5pVdZX9DjkKNVNr/BI5mP5mHvN7iTvFWsU1bebmU2ym/aqPT3aDjabFtc8LPq2WM2PJVoxh1NT3uxy/1tr4lS3bu/U6UW6wzuMFJ6WPr2fcs5vPP/fkUzdA3YCkqNPGVxXcAE+TPX6XrhzXIXINo4PKAxXnZqh8UTlbtrmq/7IBuDWWAtmFa8TTGz4tvrwx+mZPx8hdSn+zYLmzf8iOgzyN14IZmmm8xav6JLrvNZ/Dlm7kbm3T6BEbUfc32ZIYhu9iy+sXfta5urFkfzaYqLTPG5mM6ReJ3qcNTjyX+/w4/nfs7uVML1zrNUfMOsZ8cX5v59D5pnWy6KL1n+tmrKvMtdpsPiw+SszK/fAz5yn6oTEsfi8xDZ/KfSFws570Fz+N58aU+Kd14j9zPqif5auPO9gZsaoeetNgOwZlPrLex1uMOTd+rF8v6nDchjIwb6KUMXud0s9D73Uv8tz6Mf64rVVqL/EZtz5eWS/oP7SZeuf5Lv9mc8Y/8iY58fXs4o26Dh/KePIct16Lefoo+fRM2e965loaY/f49nb3xpnu4udmfg755fMSORzr+M/nt3i8r9MfPzbaitrv1YVo6nIw7e/U/zK+1r/ZOu7LiKdkJDCWxvV6iNc6M4a9+MZn3j/dx9t8n2e7yR780CZC6itx2304xIRntaoTn+drTLh43T7h+a5ZmvPG2Hq/VV2jNhK/1eK0pTd1bJ/ve3Vktdl8sRzYuSDnRPjMn/f3M9arcYX879ls60+7qpu+HtFYx87XvfXmWsP20HjmOtfnrKE+XtltzLTzRIjT5XOp+9f72bObzz/2O5+SjGVjTEkaRbQWlxahzp9QuOTlTdQ2jwGKboxxboZK7JW2ig3a1nB+JMA6nMWFy4C8FVmL1xfGjH/o4Z9mpI1UNgONzS54+/E9O6u/0R938si+iza2Odj7ud4s+LHOsD0LPH/e3se8OP+yxv19WitwtJHTlJf8xG76JBrrhtLmSYxNZx/LyI/3ZW5K/TO1kWMQX4YtP9/FHfw9Zre2N+f2GEtfipjtAkL8K+c1f6P9rTwGrZyt7nPTqedwMBLjkHxmDrVmVOPkh+Zz2HLs2drDb62d6HdkKPozc7R1XNeONue8x9+5jRoELR0ncT0XQ6gP8aPr8Pg9Laz9GBviQ2i8nO+q2d5rqbfY1XPDHOPi9+tY/l0+9MbSBktR1zkvHpcayhdoajP5aXHu5EZjyjVmc31cUg9zzvAz+hg5mnZqraaWM2abYzrWc21c8NHZCXoc9cvtNbb+tBnYdOtGDeZ49THMewzTbg21NV+3YlrXt/O2sqJ2H+WL00bn26vLUdZtaw2bW/lbHPN2Qm7d2My682XN0ZZ+LpbKx7R2yK0bv67n/GzjzLe980SaY+dMd75xayobZV0lv40J903Acp63/8wcqH+2tvG4oblpNHQo/fNxhfxv2PTxbPw81tnXeMaiOdpYbyuG7quukee6Wuvj2jXSGNP33xCnrv+2Xp/dfK4Jeq5ALikeHF8U7viAyF0AJRDMv3S83DjyGjInf0c/zs1QSfzJ1hbsY2NTQFftNL52wRUvCoZO/UKsX1TP93PcPDafbs5jsxHyd4nm57t2JD7/tHL6OpoNe58v+m2uxG3vd5qorWLsc4edfY2n7a65bYqiebI/bM05ylE8LlpdsaUXfvp0KfqZbYz3P/PveLo41Zf2Gv1Z+Zljj9mt7cncL/IXeJNWfQ05NjkbvoRakTGTK/FX8h+aOHfCHDGkOvN6dLv3l6/tr+MKazGOrHHMueZF85T9i/maFxWP2hcqzbT5zfWx7G/r/jD2jZVPzXfQXexNTUTLZV3RyY5HzfOaiy6yzhjnazL56XJ3xEbIv7/RZn7ucR8/mxr44zHOMCax2X1x/qveys4mS4fmeJ/az9EvfwNrrqt7gDsH6rygT6phx5jZ6oxusGa2jtbSiCVouawpPvXfb1rXNb/6vMp/r89Rv7wdmW+x5feaD7Et48qYXH7H52s8vi5ibLrO+lquVd5o9VpMO4/zxWszbaiv6sv3+/n0b3y2Ma/c88Ru+ZmzU9Wdne8c6073/IBhrcm49qhVt6bx6bU8xoRqFF7Ft/3zxKqzxqHnQ7PpYtVcxP/j3fut5ymnlekn+/EZOSg1bDEm33Sci6nFuRtXq7/kcz1+y47TOtmpNLZj6uujYsi/45nj99yNz75/aX/LQPaNLf/MFxfLKz32eppPScY8uc/vf7cGbBaqJNlfvBZzq4uz5eTeC8M3ZiPhcW6GSqCQueaXvA8Xthv2I/QD0nG3v/my/tM1xslt/Xw2qM23aW/MU73mCeWYHTcv+yTN2NgYNvzxT1ZNh3SRmopq+OVP6hKLNX/y3i4m5gY8dR9jVDPTein2wpaMybYif+u84feMbeji4gisyPx8s6GPcXNEm63N1+IyDY/Zre2NuTNu/ZrOjMkzY9qGuFzt6AbbfdvSa/LYYllyH/SYLKqPMQ79fPprJ8PGYeJHbaiGW/myJ/eicffR2JM1zbbGMH0Ydv3eJXuH5czVq9mtmC7mbbEq/ix6msb+WxI5BsmVxiT5DXrJsalNmqMncI3nkA29mHBaLfEVGgQdx+eRC5mTbOUxQ6uZt/lEw6+Z4xzvpzaipcZteq81rdwZo6q3+Dl5rc+BNVfZH++708b5p36UXPvzq+Y01JKzGcbGddVXvWmka1avY6zTS9iJ5zGXp9KvpEPK/bG6yLlOuT3IdBXjekzW8nkJcaueuVbl+KN8Sdos9SO+hOstn2dXn6q99zvZy3UV8nuQ9VyLwYb6EPgTnRyrcc7cX/U8dowJzYN7Fe3nXjg+i/Xkxjt91jUjc8Nnz/rcC8aeU3BTNHdn5GAwnHnM7yXurtGs6atxCReaG7ue9Zylml5ryuWhuhbR/dblo45pL4Z23evzk+OPtTbidufeJc6ak63YXsPx19N8NhB0Q+qNiyY3FqWKPopqNj52EWAbgt8oPUTuuI5NMMbNw21m5tdcN2w8ak/HtYJ5VKF4uxq/hzL50vw2zbTARS9/AjG/dMwRO23dNM5t6C0PVlAab3h1hWnru2NL4Y84s03Lq43PPmlMFT9Zz/bejS/im5te80c3EPk/LjU+z4vE5v0cMfh1tDFpxzQ/SYtuJ86ZGqexpoVn45jd4Vu2p3FW//fo0HDr//mMeh3LodbX13aHXTUNG7leIEw9sqZrHJmLUefx5Ksa+XX9z6KL8urzrM2EnQRlvWqMxTT9132rfs2+H5ynfup65tvIQ7VHRh2LGMSm5bVaI+9ptgeplomvazb086Tl8HV+IyTm0rM/f9Y5kyvxydle2REu7v/f+L9sm55u/MiZjrmTv/Ze1UzOY9JhqdtC/1JLv7b8nHI996pYw8pbZmHRJ8Sc46hqydf6TpyZlUWDmbvma/bT76vV+ahxGrlY8xKZ1/HKqv8dcld3ZR6cr8qsr70ca36/GXvW2/lhcwpW9LMjvvSxqzbKh75GLV28bX5eZ6mRNP7a+bXU2LOua3o9RAfjP2tXs7rP1UEmVG99VT2SDn0t8y9rMt/nvcqznj+zepW19HPbp8WncdzXY62P5nteP2o9tLnXctBiyDzm9xJn12jmT/22eLR+VENhIsZ1JQbNR/Ga1/MaE+NBKQAAIABJREFUmwY273ExRFt5bqq1vBeUcU42Vt9e32c32Hy+PhG3QWiAzcLaHveWYr7hWHpB7+XjsflKG4htUjeswWk+Di3Wi/LHa3H05PxH66mz40/aj4/rj/p7Wp5vOe52gidHT+Gs15xe4BXs9Iu0nc+fsmafky4+n2yn8PlV2Lq7T79Oc+v1Vd14uWWf8e1V1MFrrV/8fvJ/rUnzeSo8j21m2ChP3ShpPp+8UVzPC83ndY2o71M1avV94InCqT6cej45j5+/1XxeW/et56rFH5/inJfjZ2t59fx5w76/0rp8ds6I+8RrHnh/Dp80n6cWJ83nc+B88blXT56PzddouOLXK97rhkTz+eK8nro3vT1O29O5V3Mhf2O5vdYEvvSTz75e+0rdu75ZcHf5/hri7+fN8bVL6uvt7Zuct8jp32CA5vPGLgL+BgSsyeYDAzAAAzAAAzAAAzAAAzBwNgM0nzSffC0BBmAABmAABmAABmAABmAABk5ngOYTyE6H7Ow7KNjnLh0MwAAMwAAMwAAMwAAM3D4DNJ80nzSfMAADMAADMAADMAADMAADMHA6AzSfQHY6ZNyFuv27UOSIHMEADMAADMAADMAADJzNAM0nzSfNJwzAAAzAAAzAAAzAAAzAAAyczgDNJ5CdDtnZd1Cwz106GIABGIABGIABGIABGLh9Bmg+aT5pPmEABmAABmAABmAABmAABmDgdAZoPoHsdMi4C3X7d6HIETmCARiAARiAARiAARg4mwGaT5pPmk8YgAEYgAEYgAEYgAEYgAEYOJ0Bmk8gOx2ys++gYJ+7dDAAAzAAAzAAAzAAAzBw+wzQfNJ80nzCAAzAAAzAAAzAAAzAAAzAwOkM0HwC2emQcRfq9u9CkSNyBAMwAAMwAAMwAAMwcDYDNJ80nzSfMAADMAADMAADMAADMAADMHA6AzSfQHY6ZGffQcE+d+lgAAZgAAZgAAZgAAZg4PYZoPmk+aT5hAEYgAEYgAEYgAEYgAEYgIHTGaD5BLLTIeMu1O3fhSJH5AgGYAAGYAAGYAAGYOBsBv5+83l3f3l4+L3x79fl6yeBII/78e3yr28c8+di8+eXT6m5urt8z+vd380xn75dfj78vny/S+P8mA8fL/9++XV5eLi/fPY++J/NDhCfDTH2YQwGYAAGYAAGYAAGYAAGbp+Bv998+oatN5Cu4ZTPRqPXGkIV9NPl64/WsLrmr5orDemcNxrK0JBKk2jH5H1riPO8B9eA0nxqLnhlo4MBGIABGIABGIABGIABGLjOwCtoPouGsTWluWmsms8Pce5Ww/j5/vflQZ+kZrvaHCf7W7YMOrEzG9jrybC5uiav84k0WqAFDMAADMAADMAADMAADLxqBm6/+dxs4uTppz6NTM1hb+SWJ5+uARS79pXf1HwuTWNqSmk+nZZsAq96E+CmByzDAAzAAAzAAAzAAAz8CQZuv/ncbCCr5rP43VFtTnuDVP8e5/rkc/3q7z/lU9R1vfz13aWJpVGjUYMBGIABGIABGIABGIABGHiHDNx+8/mcJ5/SMOrvavYm0/+eqCR8bT7973vKXZAjTz79mE2/uavyJ+6qsAacwQAMwAAMwAAMwAAMwMBtMXD7zWdqIA0g3+i1JrL62u2Hj5fZWMqTUv16rd1pkKehejzb1XHJfv21W7cGzSd3s5QdXmEBBmAABmAABmAABmAABi6voPnU/9bEP42UJs8/xUzN4WhSpbGUr96OJ5/xK7Xj2PoHhx4e3DhpJPUJarNdNp++caX5ZINhg4EBGIABGIABGIABGIABGDAGXkXz2RtJ+d1P+wNB4Xc59cnn+juY9ldsJenWbLr/B3Q0ktJsatP4Zfx/n7qe/S6n2BlzivXUL7Vj/z1MbITtCS4wGoxocltfiyAf5AMGYAAGYAAGYAAGYOAlGbit5vMWGrGlaQS4lwQOW/AEAzAAAzAAAzAAAzAAA++TAZrP3PDSfPIkMjPBe5iAARiAARiAARiAARiAgWczQPOZIaL5fDZU3Ml6n3eyyDt5hwEYgAEYgAEYgAEY2GOA5jM3n7yn+YQBGIABGIABGIABGIABGICBF2eA5hOoXhyqvbsdfMbdMBiAARiAARiAARiAARh4nwzQfNJ80nzCAAzAAAzAAAzAAAzAAAzAwOkM0HwC2emQcWfrfd7ZIu/kHQZgAAZgAAZgAAZgwDNA80nzSfMJAzAAAzAAAzAAAzAAAzAAA6czQPMJZKdD5u928DN3v2AABmAABmAABmAABmDgfTJA80nzSfMJAzAAAzAAAzAAAzAAAzAAA6czQPMJZKdDxp2t93lni7yTdxiAARiAARiAARiAAc8AzSfNJ80nDMAADMAADMAADMAADMAADJzOAM0nkJ0Omb/bwc/c/YIBGIABGIABGIABGICB98kAzSfNJ80nDMAADMAADMAADMAADMAADJzOAM0nkJ0OGXe23uedLfJO3mEABmAABmAABmAABjwDNJ80nzSfMAADMAADMAADMAADMAADMHA6AzSfQHY6ZP5uBz9z9wsGYAAGYAAGYAAGYAAG3icDNJ80nzSfMAADMAADMAADMAADMAADMHA6AzSfQHY6ZNzZep93tsg7eYcBGIABGIABGIABGPAM0HzSfNJ8wgAMwAAMwAAMwAAMwAAMwMDpDNB8AtnpkPm7HfzM3S8YgAEYgAEYgAEYgAEYeJ8M0HzSfNJ8wgAMwAAMwAAMwAAMwAAMwMDpDNB8AtnpkHFn633e2SLv5B0GYAAGYAAGYAAGYMAzQPNJ80nzCQMwAAMwAAMwAAMwAAMwAAOnM0DzCWSnQ+bvdvAzd79gAAZgAAZgAAZgAAZg4H0ycAPN593l+8Pvy8OVfz+/fHpUk/T5vrL56/L102tL9KfL1x9VLPnY/eUzjfSjGGHTe2218BR/ZX+5v4MN9gcYgAEYgAEYgAEY+MsM3EDzmS8ox8XiY5vN2UiMZu3p87M/f/s9zefM7d/OBeu/vlzQfL6+nFFn5AwGYAAGYAAG3ioDb6/5vLu/PPz4dvn3L3f1LweMaz6rpzct3v7UmCefL6c5G97b0ZLm8+3kkroklzAAAzAAAzDw2hl4dc3nv19+pa/oxq/Stq/btqeeeVx+Elp/LXd8lfX7nYDdG7to/58PcjFrDa40h7kxlKbQbEkzvK57rWl8avMpfrqvM2cNTKMcS5tz///s69B53j+p4TU7bi3/Neo8f0+Da7amnk6Xvm7O08fL9DN/RVnea9yfvl1+Fja8L3PdjU3PNBHbmYcPHxcmH5YxOabpd17f+9a1DrZG7n9+uYtf2dZ4G4sas5s3bHodPes15+pH9y9rEHjwdr2GB+w2f7vtbKOaGzX8+eXb4Pj+W9AiM9k2co3F2HXatM87tz++XT6HPSj7NOsu58z2joffl/jZnFOvrfmMv3qw5KvUyOew6V5pJrG5fEX/fL78z1Hr5vv1eUWsuq7n03I+a2C5qZjjVf7u7ySXOTeaY9lzdbyu714zH9t71k48D+NcNC4Srmm1fm4sPPg4tscN7dWfeF5R/6/nZ+R3qQWnzcPDtL2O874WdauaPypHyabuXepT5kbOtfPiTDSzelYNo13VaOo+45z7wzymsWdWbN3MZ/cr1mNpQ+PbiWvMm770NXWexaksVHW59dk8PnSIGukelmPe9UfzFOrB7yPXf1adZm6yX+6c5tYb46dO5qdyKGPLukhjlv3H59PWnGspB9e40nH5dZ039sKs/XKdU3KjzOt+qvrl4/q5vBYsWQ7ss5a/LTteDxlj83SO+HKgXrJG4/1gNusy9NM4rzNW22beWbo8u/n8r//+n8t//vO/vSFsr+3985ytQWo2beNwJ5cBmAKuMLfC0WMNHtlQDfp5IRmekMpmYxtRUQy2IViB54ISWLMtd/E615S5ZqsC3cXk/DeNZZ0Qrx1LG0nbIJ0N29BlfXsv4+x98s80EFs2zjbguK7fFGzuMnbk65qteIEV12mbouWuMbKnQ1tf49KTtr/Is2NjjWDX8Te59Gtv8ObtK5PqQ7c5cu310ibRrz809JtqXk/eh5N9xVo7Nu0M7eP76YvMd/yob4vupv20Zbwm7eykdc1uz2W2t/rUtXGaet5MQ8mtvdfavJIfs+XsZ81sr5EaCnE7HufaI1dT53kRNY8VY2w/dJoUGq0+b2jm90vxc/pY7UvCmNNC6236vT0vj8l5031g+iB+L35q/ONzGy85juuk2Au9NH9+XvbNmPWxd67rPKlN22+sPvyekXyTOsl8jXz6c9vkJcdue73k08cUuFxqMuZt+JDWNP7i8cW/oPEL5GjJq+i25MLHkLRtPqXxR3IcdWi5Vvb8Wu7nEPs4PvRx555l7xFfPedFfqIvzbbO8+d4qdGje5Ge89xenPlTljNLiz/FHqv7g3FaxFVxudg2zSJ743wUc5LnjvftnO7mSn14v3TcPFZwVuiV+T/CVRVzO9bnulxU2m/66eMrrjXGvKiVMRTWbGwV+9pWHYa5WTN5r2NyHR6sl1Wvwj/J6cO1Gj3I4Lqmq3NsPKnne3bzqY2n3g1p75+XqAKkntyN42GTmxvw3DQEkgT2uinMZsXmpjlj8/x1+dn+AJCdvFJBKYgCv9kKfjpw8xo6315nTHYxYZ9Nn+dm6sabj37cvODRjWvEovPchqSbayjgkQdf1NGOxqbj3N1/s7du/N7e4Ef98SfTYXts8Om46D3z4mN2MdlFk8uh+aXj3NrSJFsevfb95w0uuz8S527uZz508w9r5bnyPp/844ldtNdNXn3Ottrx5qeMiyekpoHq0XQXTcymvP/xqz81Dj6r3cCNcpFfD9ot6yTNreKTY4ELPbFrfVTzLIaZn8GdY7frmnzQE/X9/eVnuAAYFxM/+/Fpc2iebeabYzVjMV/Ku8uZaLa7X5Wxa263f31h1+8Udzwf1LHE/bgeozc7jH3PRI/D61jEkGP183suG5tp7TxHxx2ZK2OXPMnxyFPmaNRJnFuPUV18DY55jbMRT+Y/5iTXZHxf5zrppLpkvbxOL5CjyIn42deYNbXGFnVrNoyh5nf2WWPxvtt5Qxhrn+n+oePza5pfXz+0GGaO9FsVPpdrPOuNeOWk17rt0ZKjg3tR5FEZyHVU5z0zUuZpOYfoGnuv9Xplzha+tnXKf3gy+iv5MB3FP+FE2YlzNIYxt+fvIFdVftuxZl/XGmOyFvl97WfOzbA18hrtxzpRv+r5+Rx1ZG4cs8R3uF5Ua33NOsj7H+1bku58mOuT98/s1VT/p70+u/nUptO/KrRPe80g1YH1wpfGYD55EbjLi59ot9w4OvzuJBaKYdhuxRrnxoKymLOtALr6qU/u9grEjc2bYbMp61jzKRveWnSrnbGpSBOm88IJdc7RTSrMkZiqY3ZCDU/fXC51Pcth1mCurc3R0NYdt7mqY3t1dkwbd8wuInaaT50njdXky/mv+dw6wejnlqPow4glMqmahQuPZH9ofc1Wtqt+j+NRz3Zs2Au2mwaBN9Fdj3WN7i+fk3+R/8pP9UVfD9rt62V7ce7w3zcgbY0qZq0bdyHpubHcRR1j3av/chK2PUfnjK88z1yKznfjK97z+LSjF1S2l1otqs3HfO12aHNtv6o1Wy/aLK+izZYWeoGdL+7m/DqWYG+LqXzx6pjo85VNzZ/7vK2/xJo+Hz7W/o3PhDfbdzKP1VyZY7l0+Q7rR5ZVr1CTW3tJqZf3NfvpfFCtdl4X3YqxXX/TpT6HPj9Hlb4tlq3jGqfTtmu1p4fXLZ5Ppg5jjJ4TNVfLa5HftR7Fxz5WzmOZ40Lv6cuM//udi7PPUV2O7EVjbNzzh2/VWjn2OEZ1L2JrjByIb9FSNNjkrH3eNYz7f/Yrv9d1xnHhQnKx7tFeX/9zirfIl928tRrZY7DZqxjTfMp5oKz7OVd17ppV+8/i54GYZM31HFXNlWO2thtT1eFj6iX4HnXpuWxrBntHcsQYrYc/8frs5vPPPfnUiwdtNKR4UwFuF1oEtByXNx0Hr9+04lxXUL4gsi192mKbz7ULXy0Esb+1acs61nzm986n7rezM2JSPcfrsuGqvb6BTF/8OLNjm0zzXU5mofmc823zMj3yZuzGhpPVtLvaaDE4O+q7P2YXoVvNp9qfjVVbx8cbClPW2Pzc1nN+WU4ik6P5SOMS36a16RbzNy4Kht3VJ9E06BlzZZouY/xc53fyz7TpuqRYLG5lu70etGu5jPF2f8VXX6PmR3kS1wuV4d+YV/nq4tT6XXTRfUkveuacblfHN/9bfSx6jfFZ97jHTJszLl3X+e0091pEW66ujCH1febFz/drjp/FRqh3met8WOe1MXUswUfJ9VV+ZZxnIK7p1/Kc7fnq54xxtm92vfb27XWu8W1aZ341f4V/m3tHlcNij1J9lMGy/kSLnc+2WBjHNR6JI/OtPrT4Sz+8ZoUGfr5omBufLaYmC14v1TvGfSTHPt7Vh2ivr919H+t5DQPrprv6WPs3Yxnr1PayflPbPl71b34te9EYa/vQwqvuEXvjdMx8mqz2hl7Zv0Iz02N+5nW383vmTGsl7Ulep6Zhf5/G5FzNG/rKdnrtOooOqmnhd7N7hKuc2/F+2I974Dhm7EltxDFNN6+z/FzFvPjs5039tb40l1rHkWOZu3DjefZj/HFZ61H1svrXdfFcOHu1xt4GP/9pjZ7dfP6x3/kUqKzwtHA8bFbsbhNM43R+LBwPvzuJG7xxI4hzNwo2bwz5vfpla2zB7wq22ujErjWfoodt0rqObkjuIiBu6rLBLpuUbLKtgZOnNraW2DY7Ya7Om18dsXG+mTP/82a0Ffc8rrncLJoN2+aH+us0619b0obZjjsmTM8NZvLn7f1mjquTSWI38T18T2OWNZNd+1xy4jkSjdoJbNgeeRgnTb/O5LyPS9otJ8DNmDPnB+2W9ubczkA5pohZL0L0aWU5r/kZdYx1P+OIWrk5PXdNw+HncnLc2a/iWs6m5TLmK8Y/xmtOoq2o2RZPW8e11qLNqcU26zqmjiXYS8zrmvGiKtZVmO80suOVzTLvyb8+pqj/I3O7H1HvGYvqoa/1OF+TOncccz5Vsbmbf+2iUVlQG495LVmQNZc9OPvidLJcuPw0P+x4ntvGufm5HmcMKWfJfuBmc41Co7C21tusZ70In35oLuXV5u/V4xirOe0X+Lq3LnFM+5aTHo+eOzNDTpc+bvq+7kVu7M66Wzkwf/pc8WOJI/s349nUUPJ1lTPlyJ/b8j5fvNd1h/+io+Vtz7+h1y4D3c51rtSH8Bryqn6kHIk2a217nbdyoTb9q583j/f61HOlY8Pq1ue81L/gs/LddB9xalxxnenX1Gvq0seqD2avmsOxqd/f0eLZzefLBzBBCrY3Clk3bQU1nqycqAnEEui8hsyJvzPlTpY7RTf8mBtP2NxyAacncyHuomkMn4vPsyEc+i0nMRuXfdIngG6eFq/42bVyd7TyiUBzEH8HZtrT8WbHnZTs2KKBbISuWda455zZHJU+WMy6+Q0elrGyEdqdPfXPHTe+XO6GPxu8+s1VflYdNI7MSI8raa9fxbT1vV3vSzgu2l+zpReoMi4ymm3oSSz9jmdYd7veLGbvc//5oF2pxfh1znSyrHyRY5HNVMMy5lB+lpNw8iE0rOOz71/aV22FweCjxp5/t1K0Vw6DzalxzNe8UH/UfhX8UdtbfunneiEe66rleNTmrMs173W99Hkp3uXCLufJM5E/U85kzPf7X+vv6Pn5Oj5pvWgs40acOf46tmFj1SQezxwNrdf1c13Op0y2R1gehn/XczLzuuZLc53879rNc4nOG/66417jF8hR5ET83vBFfQrNp2kz41k1HnZzjkO+rq55tB5n/jrvWxoZn5GL+DuemSHP4/hsey9Ke6JbL2rubU5ugjbpvGJ5kNiWunZr2Vg9tqHzwpms6Wug2Yp+6ftctzn2OsbceEddVIuZg7H2xlp6PtA402ufa/uh2s5+jfeLnomhrIFqvPo/fdcxVjsbvszzajV3sj3yEseM+pp1qNfu++cv1cK/ii75dzz93pP0nfF5O/z8J3V5Pc1ntXHpsXBnVwD3F4k6zl2Mr4WnJ4t84mxPBOMGEufGgrLk5U1T3ocLXDmW7ZuNXjAaz8bXlsxGLuL0VRFtHp0GY1PS5nPGv/ij+nUbUYvm62Kn+y0boz5FbMfM18q3bHcn7uBPtBU2OY3Zs1D5G+w5P9zxfFLzOdL45xjx3W3YY6N1tvUEbWOGXtOGbITigz++2srrTe3nPDlm662NwojD+Sj5GjY28lH417Xpc52tzc3/oN3Snsx1TA9tZi2M94MR0yLENXReNd3SK9bh1jytc2XDTtJJr3W+5sXVZWqIlL2tfOX67WtY3q9rpj6bXmXuVn20vjV29TO+jnl5TPRx7inTB+Vk5lYvVvSGxKJH91vnzW9gmD8lU8k/YSX4K8eyzvni1NZZan1elE27a17a/BxTxctyg2rxWXLl6mT6dv2Ca/jgdG+66t7obeoxfz5OGud4hh+PyJGsMXUrOFx4zdomPRa9/Llq7mFZh5GLpItfe4OTyLrGPu3UGsU8jTFtX5vzrFGwnESWbY7uBWkvKnMqMcw6jDaVo6jNGpP5VtxMVhvlqzJlMTn2Fs68FkOv6JfWk99b57EZY31syXfh21hPmDnI1Rr30G8yrrlftdecTt8r7YV3zXtjdMlrW0Pmeq3tZs2sg+bv0MLrWM8Neiz2xS9d71C9qBb+Vez4a02LMfq9au3t8POf1Of1NJ8NJi320FQkgGXzt+KQsVbIBrhrMmXOUpA6VovD27ZC1mKPTZA9RfONq9pT/5sNicn8U1/s1dlPfnRQzGbeeGdBqi9zgxpFphuXXRjr5rCcIJwPFvcs1NVO+2yu72OzsV2D5vO07cfZRrj4outO+2t802b7LNqdJxaL23EVxrrjWbulSC0PwkGRqxi788uto7Gsr3ETzbbi3c+hjf0fl8qb90n89fEOm3GdUUftmGoaP9eaXPTp9tNYY1pz2F4P2i3tyVwflz8x9tzX/8/n4q9d6M869tq0fHctfny7fL2fY+LF3+Te5ub6lvd+/WqvirlYWY98SO0rg5UeVrfXNVubKp8v/7PmTvU4km9lM/7xJNV2/jdU8wLJYk1x5ebTWLJYh69RS+d/yVThn+qqdbS5bxdzjfms1Tz/zFpe9Qu+6z6RdfBM6ZikgZ7bdJ8Ids1Hp407Nsbm88vB8/GiseiQ/Nv0Z5lfrJv1cL6PfbpgXnJqdXggx6sOUpdb66vN9LlnXWvf/Oi+KysrD3reGb64c4ifZ+slHoWNvDfFtSUmZd1fv/Q1kk3RetVGY9C9YfA+4p0s5fcaX3hVps2nNn9qr1rYPmHj5tp6rlc/v+7+X81SB5o/tZeYHT5mvWZs/fPKRs6DaFjbczGoH77pbnPzGpZ/X885HxVbRZ2Ib8qpatwYGlqqnWx/+j35KuyL732MxpH872uX2mt8moNKe/VPx/Iaaiuw92e1ucHm888KcG4iWlG8Bfi1uOcF07m6vSUGDsTST0Z7nDyWo5Evu8j4ixvM3+dE2E0ntKf4df0keCDXL52Lzk466b70Gq/c3k3m7QY0/Xy/t+f8WZbJ0Z/V+yn73zlzWkPyvP2rN0F7zUlrauRzbT4/30D91XqO89Vs2DIXo4Hb/jyP532tM7r8bV1oPk/dhB7bNNxYQZR3HG/Mx1Pz94dipfk88f+bovn82yeZv7v+tYu5P1TjN7dPNV2ed9H/cnklRy+n5SvjuZ379hrHA3VD8/nKcn4gp++2Ht6RNjSfpya7nVRv5+7yows6NJ+vOI5Tc/wCGz/NJ83nUxnt7NxKE/ECtfBUHZZ5o6FpXxPjGwBFXu7ub0AXcvToc/LCeZHbVzSmNY7PfYpH8/m6GXjvNfBe46f5fEUb9XuFlLg5ucAADMAADMAADMAADMDA62eA5pPm88SnTq+/QNjkyCEMwAAMwAAMwAAMwAAMvAwDNJ80nzSfMAADMAADMAADMAADMAADMHA6AzSfQHY6ZNwpepk7ReiIjjAAAzAAAzAAAzAAA6+ZAZpPmk+aTxiAARiAARiAARiAARiAARg4nQGaTyA7HbLXfHcG37m7CAMwAAMwAAMwAAMwAAMvwwDNJ80nzScMwAAMwAAMwAAMwAAMwAAMnM4AzSeQnQ4Zd4pe5k4ROqIjDMAADMAADMAADMDAa2aA5pPmk+YTBmAABmAABmAABmAABmAABk5ngOYTyE6H7DXfncF37i7CAAzAAAzAAAzAAAzAwMswQPNJ80nzCQMwAAMwAAMwAAMwAAMwAAOnM0DzCWSnQ8adope5U4SO6AgDMAADMAADMAADMPCaGaD5pPmk+YQBGIABGIABGIABGIABGICB0xmg+QSy0yF7zXdn8J27izAAAzAAAzAAAzAAAzDwMgzQfNJ80nzCAAzAAAzAAAzAAAzAAAzAwOkM0HwC2emQcafoZe4UoSM6wgAMwAAMwAAMwAAMvGYGaD5pPmk+YQAGYAAGYAAGYAAGYAAGYOB0Bm6j+by7vzw8/Lp8/SR3Mvr735eH+zsnwN3l+8Pvy4P9c+MbKNlGh+fT5esPtSM/23xvS8e09fM6/rP2ubfp3nf/i7luvZ9fPh3wc/rQx28Uwef735eHH98u//rPVTddM3/ux/qf87yt+Z++XX7qZ/IafLyaA6dXyO2av3+//Lo8PNxfPns//c/iy/e7ZlP/rTmOn+s4XqdmaIEWMAADMAADMAADMAADf4aBG2w+RwMRmgZtelzDMpqT3xcbd6jxUVFzA6nHR/MYGipZex5Lc9u6ZZNX2GpN0iE/N+Zak/XxkpvPRQ9tkkvfNF557T7FRi/b/6dq9vq8x+Yg6acxJV0e33xK4+/jzf7pWry6hj2xgDZoAwMwAAMwAAMwAAMwcBIDt9dy4Qs1AAAFVElEQVR89ibnSiPUxZAmRpuN1LyMuxcbjY42Zq6ZbeO3Gp7YiEWb7bPZmPoL+Y0G8pCfG3MdBNEnabxSPNow1v45X5tPqqOsEe2vzW6p76HYon52lynN3cqFjU/N8BifnoZ/EL/3nqA6Tc02x9hwYQAGYAAGYAAGYAAGYODFGbi55rM3PaGJ2mhWcrOYmpeyOTKAtm1aAyLNjX3N15ozN7ePWRueYWOjgTzk58Zc8z81g92mewJp45yvdsw1nXKsN24W3/g8N5+mS5sj65k2mq9DsW34lOY+rvkUmymG7nOyG+LY0YRxKydogiYwAAMwAAMwAAMwAAPPYeCGmk/5HUxtZKwx2HiqVzaf6fc49fcTF5sbDVD+fU+ZFxsxmdttbzWeDcqNBjI3bupjezU/JWb/Wf95PhEOPu3ZDHbrYlkb/tTctlykZnw8TU067vlhsXn9cr6mnqP5zJ+7p8zhyeeezWZj2n1OsTC35gdd0AUGYAAGYAAGYAAGYOAIAzfUfI4GITRVvQFNDY41pelrsuUTrq259fG+dvEVzeiTmxsaoAzcXvOZmyFns8dXz/X+BZ/K2LM/W+/H2vmrucG+fk15ebKY/C79SGPUljWj4leaWz75FL27r0H7vMZWrBw/sikwBk5gAAZgAAZgAAZgAAbOYODmmk99wuabId90TRGk4dCGKDUvY9xWU1IdT/asyZWnkLpOap5q3xqsdQP5rD841GMcX6+NzeHGWls+WGz6RDM3w/nJp2iQG0ZpAO2J7aEcVNrrV3mnH2Xzqdq3XITmM92IcPHVdthMZh2hBVrAAAzAAAzAAAzAAAz8GQZur/m0r9PORkQbUmtybIz7PcdDjY+KWjdAo5F069ofrPH/rUmeu9GYbTV+h/ysm0nf6MbmU5svp4f5Pr+qWxVVb86ssVZ9cvMpMYenwnrMfV34UGxZP1kzzS2bxs0nn82G5MHH4se7hrTSgWMz92iBFjAAAzAAAzAAAzAAA2cwcJPNp/1fmr6R0ObCfg8yNVWpeRlibTQ6+gQtP8mzhm3+rmF7AjsaIW1KC5t97dj4aTPkn+B2nw75KY2Uxar+qA+5OZTiED/sDwEF/dYCGs2s2t54NY1csyl+tf/mxjfEx57qFvq1xjDpMjQvfFJ/0pPPkG+nm/1XPNJ8xlyumpxRZNhEZxiAARiAARiAARiAARj4eLmN5pOnUi/+Z4yPwN0bR23mihz0Rm3n8yNrMIaNFgZgAAZgAAZgAAZgAAZgoDFA81k0Xe+lOGg+2QTeC+vECeswAAMwAAMwAAMw8PcZoPmk+dx86sqTz79foGyS5AAGYAAGYAAGYAAGYOCtMEDz+Y6bz7cCMXGwIcMADMAADMAADMAADMDA7TNA80nzufnkkwK+/QImR+QIBmAABmAABmAABmDgtTBA80nzSfMJAzAAAzAAAzAAAzAAAzAAA6czQPMJZKdD9lruxOAndw1hAAZgAAZgAAZgAAZg4DwGaD5pPmk+YQAGYAAGYAAGYAAGYAAGYOB0Bmg+gex0yLh7dN7dI7RFWxiAARiAARiAARiAgdfCAM0nzSfNJwzAAAzAAAzAAAzAAAzAAAyczgDNJ5CdDtlruRODn9w1hAEYgAEYgAEYgAEYgIHzGKD5pPmk+YQBGIABGIABGIABGIABGICB0xmg+QSy0yHj7tF5d4/QFm1hAAZgAAZgAAZgAAZeCwM0nzSfNJ8wAAMwAAMwAAMwAAMwAAMwcDoDNJ9Adjpkr+VODH5y1xAGYAAGYAAGYAAGYAAGzmOA5pPmk+YTBmAABmAABmAABmAABmAABk5n4P8Dj04eCQNJvF8AAAAASUVORK5CYII=;" vertex="1" parent="1">
                    <mxGeometry x="10" y="10" width="891.62" height="252" as="geometry"/>
                </mxCell>
                <mxCell id="20" value="Заказы" style="shape=table;startSize=30;container=1;collapsible=1;childLayout=tableLayout;fixedRows=1;rowLines=0;fontStyle=1;align=center;resizeLast=1;" vertex="1" parent="1">
                    <mxGeometry x="380" y="310" width="180" height="180" as="geometry"/>
                </mxCell>
                <mxCell id="21" value="" style="shape=tableRow;horizontal=0;startSize=0;swimlaneHead=0;swimlaneBody=0;fillColor=none;collapsible=0;dropTarget=0;points=[[0,0.5],[1,0.5]];portConstraint=eastwest;top=0;left=0;right=0;bottom=1;" vertex="1" parent="20">
                    <mxGeometry y="30" width="180" height="30" as="geometry"/>
                </mxCell>
                <mxCell id="22" value="PK" style="shape=partialRectangle;connectable=0;fillColor=none;top=0;left=0;bottom=0;right=0;fontStyle=1;overflow=hidden;" vertex="1" parent="21">
                    <mxGeometry width="30" height="30" as="geometry">
                        <mxRectangle width="30" height="30" as="alternateBounds"/>
                    </mxGeometry>
                </mxCell>
                <mxCell id="23" value="id" style="shape=partialRectangle;connectable=0;fillColor=none;top=0;left=0;bottom=0;right=0;align=left;spacingLeft=6;fontStyle=5;overflow=hidden;" vertex="1" parent="21">
                    <mxGeometry x="30" width="150" height="30" as="geometry">
                        <mxRectangle width="150" height="30" as="alternateBounds"/>
                    </mxGeometry>
                </mxCell>
                <mxCell id="24" value="" style="shape=tableRow;horizontal=0;startSize=0;swimlaneHead=0;swimlaneBody=0;fillColor=none;collapsible=0;dropTarget=0;points=[[0,0.5],[1,0.5]];portConstraint=eastwest;top=0;left=0;right=0;bottom=0;" vertex="1" parent="20">
                    <mxGeometry y="60" width="180" height="30" as="geometry"/>
                </mxCell>
                <mxCell id="25" value="" style="shape=partialRectangle;connectable=0;fillColor=none;top=0;left=0;bottom=0;right=0;editable=1;overflow=hidden;" vertex="1" parent="24">
                    <mxGeometry width="30" height="30" as="geometry">
                        <mxRectangle width="30" height="30" as="alternateBounds"/>
                    </mxGeometry>
                </mxCell>
                <mxCell id="26" value="Дата" style="shape=partialRectangle;connectable=0;fillColor=none;top=0;left=0;bottom=0;right=0;align=left;spacingLeft=6;overflow=hidden;" vertex="1" parent="24">
                    <mxGeometry x="30" width="150" height="30" as="geometry">
                        <mxRectangle width="150" height="30" as="alternateBounds"/>
                    </mxGeometry>
                </mxCell>
                <mxCell id="27" value="" style="shape=tableRow;horizontal=0;startSize=0;swimlaneHead=0;swimlaneBody=0;fillColor=none;collapsible=0;dropTarget=0;points=[[0,0.5],[1,0.5]];portConstraint=eastwest;top=0;left=0;right=0;bottom=0;" vertex="1" parent="20">
                    <mxGeometry y="90" width="180" height="30" as="geometry"/>
                </mxCell>
                <mxCell id="28" value="" style="shape=partialRectangle;connectable=0;fillColor=none;top=0;left=0;bottom=0;right=0;editable=1;overflow=hidden;" vertex="1" parent="27">
                    <mxGeometry width="30" height="30" as="geometry">
                        <mxRectangle width="30" height="30" as="alternateBounds"/>
                    </mxGeometry>
                </mxCell>
                <mxCell id="29" value="Статус" style="shape=partialRectangle;connectable=0;fillColor=none;top=0;left=0;bottom=0;right=0;align=left;spacingLeft=6;overflow=hidden;" vertex="1" parent="27">
                    <mxGeometry x="30" width="150" height="30" as="geometry">
                        <mxRectangle width="150" height="30" as="alternateBounds"/>
                    </mxGeometry>
                </mxCell>
                <mxCell id="30" value="" style="shape=tableRow;horizontal=0;startSize=0;swimlaneHead=0;swimlaneBody=0;fillColor=none;collapsible=0;dropTarget=0;points=[[0,0.5],[1,0.5]];portConstraint=eastwest;top=0;left=0;right=0;bottom=0;" vertex="1" parent="20">
                    <mxGeometry y="120" width="180" height="30" as="geometry"/>
                </mxCell>
                <mxCell id="31" value="" style="shape=partialRectangle;connectable=0;fillColor=none;top=0;left=0;bottom=0;right=0;editable=1;overflow=hidden;" vertex="1" parent="30">
                    <mxGeometry width="30" height="30" as="geometry">
                        <mxRectangle width="30" height="30" as="alternateBounds"/>
                    </mxGeometry>
                </mxCell>
                <mxCell id="32" value="Товары" style="shape=partialRectangle;connectable=0;fillColor=none;top=0;left=0;bottom=0;right=0;align=left;spacingLeft=6;overflow=hidden;" vertex="1" parent="30">
                    <mxGeometry x="30" width="150" height="30" as="geometry">
                        <mxRectangle width="150" height="30" as="alternateBounds"/>
                    </mxGeometry>
                </mxCell>
                <mxCell id="33" value="Покупатели" style="shape=table;startSize=30;container=1;collapsible=1;childLayout=tableLayout;fixedRows=1;rowLines=0;fontStyle=1;align=center;resizeLast=1;" vertex="1" parent="1">
                    <mxGeometry x="380" y="580" width="180" height="150" as="geometry"/>
                </mxCell>
                <mxCell id="34" value="" style="shape=tableRow;horizontal=0;startSize=0;swimlaneHead=0;swimlaneBody=0;fillColor=none;collapsible=0;dropTarget=0;points=[[0,0.5],[1,0.5]];portConstraint=eastwest;top=0;left=0;right=0;bottom=1;" vertex="1" parent="33">
                    <mxGeometry y="30" width="180" height="30" as="geometry"/>
                </mxCell>
                <mxCell id="35" value="PK" style="shape=partialRectangle;connectable=0;fillColor=none;top=0;left=0;bottom=0;right=0;fontStyle=1;overflow=hidden;" vertex="1" parent="34">
                    <mxGeometry width="30" height="30" as="geometry">
                        <mxRectangle width="30" height="30" as="alternateBounds"/>
                    </mxGeometry>
                </mxCell>
                <mxCell id="36" value="id" style="shape=partialRectangle;connectable=0;fillColor=none;top=0;left=0;bottom=0;right=0;align=left;spacingLeft=6;fontStyle=5;overflow=hidden;" vertex="1" parent="34">
                    <mxGeometry x="30" width="150" height="30" as="geometry">
                        <mxRectangle width="150" height="30" as="alternateBounds"/>
                    </mxGeometry>
                </mxCell>
                <mxCell id="37" value="" style="shape=tableRow;horizontal=0;startSize=0;swimlaneHead=0;swimlaneBody=0;fillColor=none;collapsible=0;dropTarget=0;points=[[0,0.5],[1,0.5]];portConstraint=eastwest;top=0;left=0;right=0;bottom=0;" vertex="1" parent="33">
                    <mxGeometry y="60" width="180" height="30" as="geometry"/>
                </mxCell>
                <mxCell id="38" value="" style="shape=partialRectangle;connectable=0;fillColor=none;top=0;left=0;bottom=0;right=0;editable=1;overflow=hidden;" vertex="1" parent="37">
                    <mxGeometry width="30" height="30" as="geometry">
                        <mxRectangle width="30" height="30" as="alternateBounds"/>
                    </mxGeometry>
                </mxCell>
                <mxCell id="39" value="Имя" style="shape=partialRectangle;connectable=0;fillColor=none;top=0;left=0;bottom=0;right=0;align=left;spacingLeft=6;overflow=hidden;" vertex="1" parent="37">
                    <mxGeometry x="30" width="150" height="30" as="geometry">
                        <mxRectangle width="150" height="30" as="alternateBounds"/>
                    </mxGeometry>
                </mxCell>
                <mxCell id="40" value="" style="shape=tableRow;horizontal=0;startSize=0;swimlaneHead=0;swimlaneBody=0;fillColor=none;collapsible=0;dropTarget=0;points=[[0,0.5],[1,0.5]];portConstraint=eastwest;top=0;left=0;right=0;bottom=0;" vertex="1" parent="33">
                    <mxGeometry y="90" width="180" height="30" as="geometry"/>
                </mxCell>
                <mxCell id="41" value="" style="shape=partialRectangle;connectable=0;fillColor=none;top=0;left=0;bottom=0;right=0;editable=1;overflow=hidden;" vertex="1" parent="40">
                    <mxGeometry width="30" height="30" as="geometry">
                        <mxRectangle width="30" height="30" as="alternateBounds"/>
                    </mxGeometry>
                </mxCell>
                <mxCell id="42" value="Адрес" style="shape=partialRectangle;connectable=0;fillColor=none;top=0;left=0;bottom=0;right=0;align=left;spacingLeft=6;overflow=hidden;" vertex="1" parent="40">
                    <mxGeometry x="30" width="150" height="30" as="geometry">
                        <mxRectangle width="150" height="30" as="alternateBounds"/>
                    </mxGeometry>
                </mxCell>
                <mxCell id="43" value="" style="shape=tableRow;horizontal=0;startSize=0;swimlaneHead=0;swimlaneBody=0;fillColor=none;collapsible=0;dropTarget=0;points=[[0,0.5],[1,0.5]];portConstraint=eastwest;top=0;left=0;right=0;bottom=0;" vertex="1" parent="33">
                    <mxGeometry y="120" width="180" height="30" as="geometry"/>
                </mxCell>
                <mxCell id="44" value="" style="shape=partialRectangle;connectable=0;fillColor=none;top=0;left=0;bottom=0;right=0;editable=1;overflow=hidden;" vertex="1" parent="43">
                    <mxGeometry width="30" height="30" as="geometry">
                        <mxRectangle width="30" height="30" as="alternateBounds"/>
                    </mxGeometry>
                </mxCell>
                <mxCell id="45" value="Контактные данные" style="shape=partialRectangle;connectable=0;fillColor=none;top=0;left=0;bottom=0;right=0;align=left;spacingLeft=6;overflow=hidden;" vertex="1" parent="43">
                    <mxGeometry x="30" width="150" height="30" as="geometry">
                        <mxRectangle width="150" height="30" as="alternateBounds"/>
                    </mxGeometry>
                </mxCell>
                <mxCell id="46" value="Товары" style="shape=table;startSize=40;container=1;collapsible=1;childLayout=tableLayout;fixedRows=1;rowLines=0;fontStyle=1;align=center;resizeLast=1;strokeColor=default;autosize=0;enumerate=0;" vertex="1" parent="1">
                    <mxGeometry x="100" y="310" width="180" height="190" as="geometry">
                        <mxRectangle x="100" y="310" width="90" height="30" as="alternateBounds"/>
                    </mxGeometry>
                </mxCell>
                <mxCell id="47" value="" style="shape=tableRow;horizontal=0;startSize=0;swimlaneHead=0;swimlaneBody=0;fillColor=none;collapsible=0;dropTarget=0;points=[[0,0.5],[1,0.5]];portConstraint=eastwest;top=0;left=0;right=0;bottom=1;" vertex="1" parent="46">
                    <mxGeometry y="40" width="180" height="30" as="geometry"/>
                </mxCell>
                <mxCell id="48" value="PK" style="shape=partialRectangle;connectable=0;fillColor=none;top=0;left=0;bottom=0;right=0;fontStyle=1;overflow=hidden;" vertex="1" parent="47">
                    <mxGeometry width="30" height="30" as="geometry">
                        <mxRectangle width="30" height="30" as="alternateBounds"/>
                    </mxGeometry>
                </mxCell>
                <mxCell id="49" value="id" style="shape=partialRectangle;connectable=0;fillColor=none;top=0;left=0;bottom=0;right=0;align=left;spacingLeft=6;fontStyle=5;overflow=hidden;" vertex="1" parent="47">
                    <mxGeometry x="30" width="150" height="30" as="geometry">
                        <mxRectangle width="150" height="30" as="alternateBounds"/>
                    </mxGeometry>
                </mxCell>
                <mxCell id="50" value="" style="shape=tableRow;horizontal=0;startSize=0;swimlaneHead=0;swimlaneBody=0;fillColor=none;collapsible=0;dropTarget=0;points=[[0,0.5],[1,0.5]];portConstraint=eastwest;top=0;left=0;right=0;bottom=0;" vertex="1" parent="46">
                    <mxGeometry y="70" width="180" height="30" as="geometry"/>
                </mxCell>
                <mxCell id="51" value="" style="shape=partialRectangle;connectable=0;fillColor=none;top=0;left=0;bottom=0;right=0;editable=1;overflow=hidden;" vertex="1" parent="50">
                    <mxGeometry width="30" height="30" as="geometry">
                        <mxRectangle width="30" height="30" as="alternateBounds"/>
                    </mxGeometry>
                </mxCell>
                <mxCell id="52" value="Название" style="shape=partialRectangle;connectable=0;fillColor=none;top=0;left=0;bottom=0;right=0;align=left;spacingLeft=6;overflow=hidden;" vertex="1" parent="50">
                    <mxGeometry x="30" width="150" height="30" as="geometry">
                        <mxRectangle width="150" height="30" as="alternateBounds"/>
                    </mxGeometry>
                </mxCell>
                <mxCell id="53" value="" style="shape=tableRow;horizontal=0;startSize=0;swimlaneHead=0;swimlaneBody=0;fillColor=none;collapsible=0;dropTarget=0;points=[[0,0.5],[1,0.5]];portConstraint=eastwest;top=0;left=0;right=0;bottom=0;" vertex="1" parent="46">
                    <mxGeometry y="100" width="180" height="30" as="geometry"/>
                </mxCell>
                <mxCell id="54" value="" style="shape=partialRectangle;connectable=0;fillColor=none;top=0;left=0;bottom=0;right=0;editable=1;overflow=hidden;" vertex="1" parent="53">
                    <mxGeometry width="30" height="30" as="geometry">
                        <mxRectangle width="30" height="30" as="alternateBounds"/>
                    </mxGeometry>
                </mxCell>
                <mxCell id="55" value="Описание" style="shape=partialRectangle;connectable=0;fillColor=none;top=0;left=0;bottom=0;right=0;align=left;spacingLeft=6;overflow=hidden;" vertex="1" parent="53">
                    <mxGeometry x="30" width="150" height="30" as="geometry">
                        <mxRectangle width="150" height="30" as="alternateBounds"/>
                    </mxGeometry>
                </mxCell>
                <mxCell id="56" value="" style="shape=tableRow;horizontal=0;startSize=0;swimlaneHead=0;swimlaneBody=0;fillColor=none;collapsible=0;dropTarget=0;points=[[0,0.5],[1,0.5]];portConstraint=eastwest;top=0;left=0;right=0;bottom=0;" vertex="1" parent="46">
                    <mxGeometry y="130" width="180" height="30" as="geometry"/>
                </mxCell>
                <mxCell id="57" value="" style="shape=partialRectangle;connectable=0;fillColor=none;top=0;left=0;bottom=0;right=0;editable=1;overflow=hidden;" vertex="1" parent="56">
                    <mxGeometry width="30" height="30" as="geometry">
                        <mxRectangle width="30" height="30" as="alternateBounds"/>
                    </mxGeometry>
                </mxCell>
                <mxCell id="58" value="Цена" style="shape=partialRectangle;connectable=0;fillColor=none;top=0;left=0;bottom=0;right=0;align=left;spacingLeft=6;overflow=hidden;" vertex="1" parent="56">
                    <mxGeometry x="30" width="150" height="30" as="geometry">
                        <mxRectangle width="150" height="30" as="alternateBounds"/>
                    </mxGeometry>
                </mxCell>
                <mxCell id="59" value="Количество" style="shape=partialRectangle;connectable=0;fillColor=none;top=0;left=0;bottom=0;right=0;align=left;spacingLeft=6;overflow=hidden;" vertex="1" parent="1">
                    <mxGeometry x="130" y="470" width="150" height="30" as="geometry">
                        <mxRectangle width="150" height="30" as="alternateBounds"/>
                    </mxGeometry>
                </mxCell>
                <mxCell id="65" value="" style="shape=tableRow;horizontal=0;startSize=0;swimlaneHead=0;swimlaneBody=0;fillColor=none;collapsible=0;dropTarget=0;points=[[0,0.5],[1,0.5]];portConstraint=eastwest;top=0;left=0;right=0;bottom=0;" vertex="1" parent="1">
                    <mxGeometry x="380" y="460" width="180" height="30" as="geometry"/>
                </mxCell>
                <mxCell id="66" value="" style="shape=partialRectangle;connectable=0;fillColor=none;top=0;left=0;bottom=0;right=0;editable=1;overflow=hidden;" vertex="1" parent="65">
                    <mxGeometry width="30" height="30" as="geometry">
                        <mxRectangle width="30" height="30" as="alternateBounds"/>
                    </mxGeometry>
                </mxCell>
                <mxCell id="67" value="Покупатели" style="shape=partialRectangle;connectable=0;fillColor=none;top=0;left=0;bottom=0;right=0;align=left;spacingLeft=6;overflow=hidden;" vertex="1" parent="65">
                    <mxGeometry x="30" width="150" height="30" as="geometry">
                        <mxRectangle width="150" height="30" as="alternateBounds"/>
                    </mxGeometry>
                </mxCell>
                <mxCell id="69" value="" style="edgeStyle=entityRelationEdgeStyle;fontSize=12;html=1;endArrow=ERzeroToMany;startArrow=ERmandOne;entryX=1;entryY=0.5;entryDx=0;entryDy=0;exitX=1;exitY=0.5;exitDx=0;exitDy=0;" edge="1" parent="1" source="34" target="65">
                    <mxGeometry width="100" height="100" relative="1" as="geometry">
                        <mxPoint x="640" y="630" as="sourcePoint"/>
                        <mxPoint x="770" y="580" as="targetPoint"/>
                    </mxGeometry>
                </mxCell>
                <mxCell id="70" value="" style="edgeStyle=entityRelationEdgeStyle;fontSize=12;html=1;endArrow=ERoneToMany;startArrow=ERzeroToMany;exitX=1;exitY=0.5;exitDx=0;exitDy=0;entryX=0;entryY=0.5;entryDx=0;entryDy=0;" edge="1" parent="1" source="47" target="30">
                    <mxGeometry width="100" height="100" relative="1" as="geometry">
                        <mxPoint x="220" y="730" as="sourcePoint"/>
                        <mxPoint x="320" y="630" as="targetPoint"/>
                    </mxGeometry>
                </mxCell>
            </root>
        </mxGraphModel>
    </diagram>
</mxfile>